<svg xmlns="http://www.w3.org/2000/svg" xmlns:xlink="http://www.w3.org/1999/xlink" width="500" zoomAndPan="magnify" viewBox="0 0 375 374.999991" height="500" preserveAspectRatio="xMidYMid meet" version="1.0"><defs><clipPath id="62b0c7adaa"><path d="M 99.863281 30.667969 L 249.859375 30.667969 L 249.859375 180.667969 L 99.863281 180.667969 Z M 99.863281 30.667969 " clip-rule="nonzero"/></clipPath><clipPath id="ff341b4e31"><path d="M 174.863281 30.667969 C 133.441406 30.667969 99.863281 64.246094 99.863281 105.667969 C 99.863281 147.089844 133.441406 180.667969 174.863281 180.667969 C 216.28125 180.667969 249.859375 147.089844 249.859375 105.667969 C 249.859375 64.246094 216.28125 30.667969 174.863281 30.667969 " clip-rule="nonzero"/></clipPath><clipPath id="a2e7b5253f"><path d="M 99.863281 127.527344 L 249.859375 127.527344 L 249.859375 277.527344 L 99.863281 277.527344 Z M 99.863281 127.527344 " clip-rule="nonzero"/></clipPath><clipPath id="5f4fe9e768"><path d="M 174.863281 127.527344 C 133.441406 127.527344 99.863281 161.105469 99.863281 202.527344 C 99.863281 243.949219 133.441406 277.527344 174.863281 277.527344 C 216.28125 277.527344 249.859375 243.949219 249.859375 202.527344 C 249.859375 161.105469 216.28125 127.527344 174.863281 127.527344 " clip-rule="nonzero"/></clipPath><clipPath id="8abdbeb01b"><path d="M 162.972656 90.652344 L 312.972656 90.652344 L 312.972656 240.652344 L 162.972656 240.652344 Z M 162.972656 90.652344 " clip-rule="nonzero"/></clipPath><clipPath id="23b7a9516a"><path d="M 237.972656 90.652344 C 196.550781 90.652344 162.972656 124.230469 162.972656 165.652344 C 162.972656 207.074219 196.550781 240.652344 237.972656 240.652344 C 279.394531 240.652344 312.972656 207.074219 312.972656 165.652344 C 312.972656 124.230469 279.394531 90.652344 237.972656 90.652344 " clip-rule="nonzero"/></clipPath><clipPath id="54ec174962"><path d="M 36 90.652344 L 186 90.652344 L 186 240.652344 L 36 240.652344 Z M 36 90.652344 " clip-rule="nonzero"/></clipPath><clipPath id="e0dd783192"><path d="M 111 90.652344 C 69.578125 90.652344 36 124.230469 36 165.652344 C 36 207.074219 69.578125 240.652344 111 240.652344 C 152.421875 240.652344 186 207.074219 186 165.652344 C 186 124.230469 152.421875 90.652344 111 90.652344 " clip-rule="nonzero"/></clipPath><clipPath id="1315ba48df"><path d="M 162.972656 90.75 L 312.972656 90.75 L 312.972656 240.75 L 162.972656 240.75 Z M 162.972656 90.75 " clip-rule="nonzero"/></clipPath><clipPath id="4ed5b5f378"><path d="M 98.25 127.527344 L 248.25 127.527344 L 248.25 277.527344 L 98.25 277.527344 Z M 98.25 127.527344 " clip-rule="nonzero"/></clipPath><clipPath id="7d1b66d6d7"><path d="M 99 30.667969 L 249 30.667969 L 249 180.667969 L 99 180.667969 Z M 99 30.667969 " clip-rule="nonzero"/></clipPath><clipPath id="a735bf288f"><path d="M 38.25 90.75 L 188.25 90.75 L 188.25 240.75 L 38.25 240.75 Z M 38.25 90.75 " clip-rule="nonzero"/></clipPath><clipPath id="99b131440c"><path d="M 113.25 108.082031 L 139.722656 108.082031 L 139.722656 131.277344 L 113.25 131.277344 Z M 113.25 108.082031 " clip-rule="nonzero"/></clipPath><clipPath id="72ce8c7814"><path d="M 126.488281 108.082031 C 119.175781 108.082031 113.25 113.277344 113.25 119.679688 C 113.25 126.085938 119.175781 131.277344 126.488281 131.277344 C 133.796875 131.277344 139.722656 126.085938 139.722656 119.679688 C 139.722656 113.277344 133.796875 108.082031 126.488281 108.082031 " clip-rule="nonzero"/></clipPath><clipPath id="dce1cfa5cd"><path d="M 207 107.332031 L 233.472656 107.332031 L 233.472656 130.527344 L 207 130.527344 Z M 207 107.332031 " clip-rule="nonzero"/></clipPath><clipPath id="da82c3dc41"><path d="M 220.238281 107.332031 C 212.925781 107.332031 207 112.527344 207 118.929688 C 207 125.335938 212.925781 130.527344 220.238281 130.527344 C 227.546875 130.527344 233.472656 125.335938 233.472656 118.929688 C 233.472656 112.527344 227.546875 107.332031 220.238281 107.332031 " clip-rule="nonzero"/></clipPath><clipPath id="2660a69877"><path d="M 167 177.359375 L 183.75 177.359375 L 183.75 200.414062 L 167 200.414062 Z M 167 177.359375 " clip-rule="nonzero"/></clipPath><clipPath id="33b4367b45"><path d="M 172.199219 190.800781 C 171.375 187.574219 171.148438 186.824219 171.074219 186 C 171 185.023438 170.476562 183.523438 171 182.773438 C 171.601562 181.875 173.851562 180.976562 174.898438 181.273438 C 175.949219 181.5 176.773438 183.226562 177.449219 184.199219 C 178.050781 185.101562 178.273438 186 178.726562 186.898438 C 179.175781 187.800781 180.449219 188.925781 180.226562 189.449219 C 180 189.976562 178.273438 190.5 177.898438 190.199219 C 177.449219 189.824219 178.574219 187.875 178.199219 187.050781 C 177.824219 186.226562 176.550781 185.925781 175.875 185.175781 C 175.199219 184.425781 174.300781 183.675781 174.226562 182.699219 C 174.074219 181.574219 174.898438 179.699219 175.648438 178.875 C 176.25 178.199219 177.148438 177.824219 177.976562 177.675781 C 178.875 177.449219 180.226562 177.449219 181.050781 177.898438 C 181.875 178.351562 182.699219 179.476562 182.773438 180.375 C 182.851562 181.351562 181.726562 182.851562 181.050781 183.675781 C 180.523438 184.273438 179.851562 184.648438 179.175781 185.023438 C 178.425781 185.398438 177.449219 185.625 176.625 185.773438 C 175.800781 185.925781 175.050781 185.851562 174.148438 185.773438 C 173.101562 185.625 171.523438 185.175781 170.851562 184.949219 C 170.550781 184.875 170.398438 184.800781 170.175781 184.726562 C 169.949219 184.648438 169.726562 184.648438 169.5 184.574219 C 169.273438 184.5 169.050781 184.425781 168.824219 184.273438 C 168.601562 184.125 168.449219 183.976562 168.300781 183.824219 C 168.148438 183.675781 168 183.449219 167.851562 183.226562 C 167.699219 183 167.625 182.773438 167.550781 182.550781 C 167.476562 182.324219 167.476562 182.023438 167.476562 181.800781 C 167.476562 181.574219 167.476562 181.351562 167.550781 181.125 C 167.625 180.898438 167.699219 180.675781 167.773438 180.449219 C 167.851562 180.226562 168 180 168.148438 179.773438 C 168.300781 179.625 168.449219 179.476562 168.675781 179.324219 C 168.898438 179.175781 169.125 179.023438 169.351562 178.949219 C 169.574219 178.875 169.800781 178.800781 170.023438 178.800781 C 170.25 178.726562 170.550781 178.574219 170.773438 178.726562 C 171.449219 179.101562 173.023438 182.101562 172.949219 183.449219 C 172.875 184.5 171.675781 186.226562 171.449219 186.148438 C 171.148438 186.074219 171.074219 183 171.449219 182.851562 C 171.824219 182.699219 173.023438 184.125 173.699219 184.800781 C 174.300781 185.398438 174.824219 185.851562 175.199219 186.523438 C 175.648438 187.273438 175.875 188.398438 176.175781 189.300781 C 176.476562 190.273438 176.625 191.25 176.925781 192.148438 C 177.148438 192.976562 177.300781 193.800781 177.675781 194.476562 C 177.976562 195.074219 178.726562 195.523438 178.949219 196.050781 C 179.101562 196.425781 179.175781 196.726562 179.175781 197.023438 C 179.175781 197.324219 179.175781 197.699219 179.101562 198 C 179.023438 198.300781 178.800781 198.601562 178.648438 198.898438 C 178.425781 199.199219 178.199219 199.425781 177.976562 199.648438 C 177.75 199.875 177.449219 200.023438 177.148438 200.175781 C 176.851562 200.324219 176.476562 200.324219 176.175781 200.324219 C 175.875 200.324219 175.5 200.25 175.199219 200.175781 C 174.898438 200.101562 174.601562 199.875 174.300781 199.726562 C 174 199.5 173.773438 199.351562 173.550781 199.050781 C 173.324219 198.824219 173.175781 198.449219 173.101562 198.148438 C 173.023438 197.851562 173.023438 197.476562 173.023438 197.175781 C 173.023438 196.875 173.101562 196.5 173.175781 196.199219 C 173.25 195.898438 173.476562 195.601562 173.699219 195.300781 C 173.925781 195.074219 174.148438 194.773438 174.449219 194.625 C 174.75 194.476562 175.050781 194.324219 175.351562 194.25 C 175.648438 194.175781 176.023438 194.175781 176.324219 194.175781 C 176.625 194.175781 177 194.25 177.300781 194.398438 C 177.601562 194.550781 177.898438 194.773438 178.125 195 C 178.351562 195.226562 178.648438 195.449219 178.800781 195.75 C 178.949219 196.050781 179.023438 196.351562 179.101562 196.648438 C 179.175781 196.949219 179.175781 197.398438 179.101562 197.699219 C 179.023438 198 179.023438 198.300781 178.875 198.601562 C 178.726562 198.898438 178.5 199.199219 178.273438 199.425781 C 178.050781 199.648438 177.75 199.875 177.449219 200.023438 C 177.148438 200.175781 176.773438 200.324219 176.476562 200.324219 C 176.175781 200.324219 175.800781 200.324219 175.5 200.25 C 175.199219 200.175781 174.824219 200.101562 174.523438 199.949219 C 174.226562 199.800781 174 199.574219 173.773438 199.351562 C 173.550781 199.125 173.25 198.449219 173.25 198.449219 C 173.25 198.449219 172.574219 196.800781 172.199219 195.976562 C 171.824219 195.148438 171.449219 194.398438 171.148438 193.425781 C 170.773438 192.300781 170.699219 190.800781 170.25 189.75 C 169.875 188.925781 169.199219 188.324219 168.675781 187.648438 C 168.226562 186.976562 167.550781 186.601562 167.324219 185.773438 C 166.949219 184.574219 167.101562 180.898438 167.625 180.75 C 168.074219 180.601562 170.398438 184.425781 170.175781 184.726562 C 170.101562 184.800781 169.726562 184.648438 169.5 184.574219 C 169.273438 184.5 169.050781 184.425781 168.824219 184.273438 C 168.601562 184.125 168.449219 183.976562 168.300781 183.824219 C 168.148438 183.675781 168 183.449219 167.851562 183.226562 C 167.699219 183 167.625 182.773438 167.550781 182.550781 C 167.476562 182.324219 167.476562 182.023438 167.476562 181.800781 C 167.476562 181.574219 167.476562 181.351562 167.550781 181.125 C 167.625 180.898438 167.699219 180.675781 167.773438 180.449219 C 167.851562 180.226562 168 180 168.148438 179.773438 C 168.300781 179.625 168.449219 179.476562 168.675781 179.324219 C 168.898438 179.175781 169.125 179.023438 169.351562 178.949219 C 169.574219 178.875 169.800781 178.800781 170.023438 178.800781 C 170.25 178.726562 170.476562 178.726562 170.773438 178.726562 C 171.375 178.800781 172.425781 179.175781 173.324219 179.476562 C 174.226562 179.773438 175.273438 180.601562 176.175781 180.449219 C 177.074219 180.300781 178.351562 178.273438 178.574219 178.425781 C 178.726562 178.574219 177.824219 179.851562 177.824219 180.601562 C 177.824219 181.5 178.574219 183.375 179.023438 183.449219 C 179.476562 183.523438 179.925781 181.800781 180.449219 181.726562 C 180.976562 181.648438 181.800781 182.550781 182.324219 183.148438 C 182.851562 183.824219 183.375 184.800781 183.523438 185.699219 C 183.675781 186.601562 183.523438 187.574219 183.449219 188.476562 C 183.375 189.375 183.375 190.199219 183 191.023438 C 182.625 192 181.875 193.351562 181.050781 193.875 C 180.226562 194.398438 178.949219 194.625 178.125 194.324219 C 177.226562 193.949219 176.550781 192.375 175.875 191.398438 C 175.351562 190.574219 174.898438 189.75 174.449219 188.925781 C 174.074219 188.175781 173.625 187.5 173.324219 186.75 C 173.023438 186 172.273438 185.023438 172.574219 184.574219 C 172.875 184.050781 175.050781 183.824219 175.574219 184.273438 C 176.101562 184.726562 175.648438 186.074219 175.875 186.976562 C 176.023438 187.800781 176.550781 188.925781 176.699219 189.449219 C 176.773438 189.675781 176.773438 189.824219 176.773438 189.976562 C 176.773438 190.199219 176.773438 190.351562 176.699219 190.574219 C 176.699219 190.726562 176.625 190.949219 176.550781 191.101562 C 176.476562 191.25 176.324219 191.398438 176.25 191.550781 C 176.101562 191.699219 176.023438 191.851562 175.875 192 C 175.726562 192.148438 175.5 192.226562 175.351562 192.300781 C 175.199219 192.375 174.976562 192.449219 174.824219 192.449219 C 174.675781 192.449219 174.449219 192.449219 174.300781 192.449219 C 174.074219 192.449219 173.925781 192.449219 173.699219 192.375 C 173.476562 192.300781 173.324219 192.148438 173.175781 192.074219 C 173.023438 192 172.949219 191.925781 172.800781 191.773438 C 172.648438 191.625 172.5 191.476562 172.425781 191.324219 C 172.351562 191.175781 172.199219 190.800781 172.199219 190.800781 " clip-rule="nonzero"/></clipPath></defs><g clip-path="url(#62b0c7adaa)"><g clip-path="url(#ff341b4e31)"><path fill="#fdd598" d="M 99.863281 30.667969 L 249.863281 30.667969 L 249.863281 180.667969 L 99.863281 180.667969 Z M 99.863281 30.667969 " fill-opacity="1" fill-rule="nonzero"/></g></g><g clip-path="url(#a2e7b5253f)"><g clip-path="url(#5f4fe9e768)"><path fill="#cf3463" d="M 99.863281 127.527344 L 249.863281 127.527344 L 249.863281 277.527344 L 99.863281 277.527344 Z M 99.863281 127.527344 " fill-opacity="1" fill-rule="nonzero"/></g></g><g clip-path="url(#8abdbeb01b)"><g clip-path="url(#23b7a9516a)"><path fill="#9f7116" d="M 162.972656 90.652344 L 312.972656 90.652344 L 312.972656 240.652344 L 162.972656 240.652344 Z M 162.972656 90.652344 " fill-opacity="1" fill-rule="nonzero"/></g></g><g clip-path="url(#54ec174962)"><g clip-path="url(#e0dd783192)"><path fill="#9f7116" d="M 36 90.652344 L 186 90.652344 L 186 240.652344 L 36 240.652344 Z M 36 90.652344 " fill-opacity="1" fill-rule="nonzero"/></g></g><g clip-path="url(#1315ba48df)"><path fill="#000000" d="M 237.972656 240.75 C 196.539062 240.75 162.972656 206.953125 162.972656 165.75 C 162.972656 124.546875 196.539062 90.75 237.972656 90.75 C 279.40625 90.75 312.972656 124.316406 312.972656 165.75 C 312.972656 207.183594 279.175781 240.75 237.972656 240.75 Z M 237.972656 95.378906 C 199.082031 95.378906 167.601562 126.859375 167.601562 165.75 C 167.601562 204.636719 199.082031 236.121094 237.972656 236.121094 C 276.863281 236.121094 308.34375 204.636719 308.34375 165.75 C 308.34375 126.859375 276.628906 95.378906 237.972656 95.378906 Z M 237.972656 95.378906 " fill-opacity="1" fill-rule="nonzero"/></g><g clip-path="url(#4ed5b5f378)"><path fill="#000000" d="M 173.25 277.527344 C 131.816406 277.527344 98.25 243.730469 98.25 202.527344 C 98.25 161.324219 131.816406 127.527344 173.25 127.527344 C 214.683594 127.527344 248.25 161.09375 248.25 202.527344 C 248.25 243.960938 214.453125 277.527344 173.25 277.527344 Z M 173.25 132.15625 C 134.359375 132.15625 102.878906 163.636719 102.878906 202.527344 C 102.878906 241.417969 134.359375 272.898438 173.25 272.898438 C 212.136719 272.898438 243.621094 241.417969 243.621094 202.527344 C 243.621094 163.636719 211.90625 132.15625 173.25 132.15625 Z M 173.25 132.15625 " fill-opacity="1" fill-rule="nonzero"/></g><g clip-path="url(#7d1b66d6d7)"><path fill="#000000" d="M 174 180.667969 C 132.566406 180.667969 99 146.871094 99 105.667969 C 99 64.460938 132.566406 30.667969 174 30.667969 C 215.433594 30.667969 249 64.230469 249 105.667969 C 249 147.101562 215.203125 180.667969 174 180.667969 Z M 174 35.296875 C 135.109375 35.296875 103.628906 66.777344 103.628906 105.667969 C 103.628906 144.554688 135.109375 176.035156 174 176.035156 C 212.886719 176.035156 244.371094 144.554688 244.371094 105.667969 C 244.371094 66.777344 212.65625 35.296875 174 35.296875 Z M 174 35.296875 " fill-opacity="1" fill-rule="nonzero"/></g><g clip-path="url(#a735bf288f)"><path fill="#000000" d="M 113.25 240.75 C 71.816406 240.75 38.25 206.953125 38.25 165.75 C 38.25 124.546875 71.816406 90.75 113.25 90.75 C 154.683594 90.75 188.25 124.316406 188.25 165.75 C 188.25 207.183594 154.453125 240.75 113.25 240.75 Z M 113.25 95.378906 C 74.359375 95.378906 42.878906 126.859375 42.878906 165.75 C 42.878906 204.636719 74.359375 236.121094 113.25 236.121094 C 152.140625 236.121094 183.621094 204.636719 183.621094 165.75 C 183.621094 126.859375 151.90625 95.378906 113.25 95.378906 Z M 113.25 95.378906 " fill-opacity="1" fill-rule="nonzero"/></g><g clip-path="url(#99b131440c)"><g clip-path="url(#72ce8c7814)"><path fill="#000000" d="M 113.25 108.082031 L 139.722656 108.082031 L 139.722656 131.277344 L 113.25 131.277344 Z M 113.25 108.082031 " fill-opacity="1" fill-rule="nonzero"/></g></g><g clip-path="url(#dce1cfa5cd)"><g clip-path="url(#da82c3dc41)"><path fill="#000000" d="M 207 107.332031 L 233.472656 107.332031 L 233.472656 130.527344 L 207 130.527344 Z M 207 107.332031 " fill-opacity="1" fill-rule="nonzero"/></g></g><g clip-path="url(#2660a69877)"><g clip-path="url(#33b4367b45)"><path fill="#000000" d="M 164.324219 174.675781 L 186.523438 174.675781 L 186.523438 203.324219 L 164.324219 203.324219 Z M 164.324219 174.675781 " fill-opacity="1" fill-rule="nonzero"/></g></g></svg>