<svg version="1.1"     xmlns="http://www.w3.org/2000/svg"     xmlns:xlink="http://www.w3.org/1999/xlink"     x="0px"     y="0px"     viewBox="0 0 512 512"     style="enable-background:new 0 0 512 512;"     xml:space="preserve">	<g>		<g>			<path d="M490.667,0H21.333C9.552,0,0,9.551,0,21.333v469.333C0,502.449,9.552,512,21.333,512h469.333			c11.782,0,21.333-9.551,21.333-21.333V21.333C512,9.551,502.45,0,490.667,0z M469.334,469.333L469.334,469.333H42.667V42.667			h426.667V469.333z"/>		</g>	</g>	<g>		<g>			<path d="M405.334,362.667H106.667c-11.782,0-21.333,9.551-21.333,21.333c-0.001,11.782,9.551,21.333,21.333,21.333h298.667			c11.782,0,21.333-9.551,21.333-21.333C426.667,372.218,417.117,362.667,405.334,362.667z"/>		</g>	</g>	<g>		<g>			<path d="M277.335,277.334H106.667c-11.782,0-21.333,9.551-21.333,21.333C85.333,310.449,94.885,320,106.667,320h170.667			c11.782,0,21.333-9.551,21.333-21.333C298.668,286.885,289.117,277.334,277.335,277.334z"/>		</g>	</g>	<g>		<g>			<path d="M277.335,192.001H106.667c-11.782,0-21.333,9.551-21.333,21.333c-0.001,11.781,9.551,21.333,21.333,21.333h170.667			c11.782,0,21.333-9.551,21.333-21.333C298.668,201.552,289.117,192.001,277.335,192.001z"/>		</g>	</g>	<g>		<g>			<path d="M405.334,106.667H106.667c-11.782,0-21.333,9.551-21.333,21.333c-0.001,11.782,9.551,21.333,21.333,21.333h298.667			c11.782,0,21.333-9.551,21.333-21.333S417.117,106.667,405.334,106.667z"/>		</g>	</g>	<g>		<g>			<path d="M392.838,256l27.582-27.582c8.331-8.331,8.331-21.838-0.001-30.17c-8.331-8.331-21.839-8.331-30.17,0l-42.667,42.667			c-8.331,8.331-8.331,21.839,0,30.17l42.667,42.667c8.331,8.331,21.839,8.331,30.17,0c8.331-8.331,8.331-21.839,0-30.17			L392.838,256z"/>		</g>	</g>	<g></g>	<g></g>	<g></g>	<g></g>	<g></g>	<g></g>	<g></g>	<g></g>	<g></g>	<g></g>	<g></g>	<g></g>	<g></g>	<g></g>	<g></g></svg>