<svg version="1.1"     xmlns="http://www.w3.org/2000/svg"     xmlns:xlink="http://www.w3.org/1999/xlink"     x="0px"     y="0px"     viewBox="0 0 512 512"     style="enable-background:new 0 0 512 512;"     xml:space="preserve">	<g>		<g>			<path d="M490.667,0H21.333C9.536,0,0,9.557,0,21.333v469.333C0,502.443,9.536,512,21.333,512h469.333			c11.797,0,21.333-9.557,21.333-21.333V21.333C512,9.557,502.464,0,490.667,0z M106.667,106.667h298.667			c11.797,0,21.333,9.557,21.333,21.333s-9.536,21.333-21.333,21.333H106.667c-11.797,0-21.333-9.557-21.333-21.333			S94.869,106.667,106.667,106.667z M106.667,192h170.667c11.797,0,21.333,9.557,21.333,21.333s-9.536,21.333-21.333,21.333H106.667			c-11.797,0-21.333-9.557-21.333-21.333S94.869,192,106.667,192z M106.667,277.333h170.667c11.797,0,21.333,9.557,21.333,21.333			S289.131,320,277.333,320H106.667c-11.797,0-21.333-9.557-21.333-21.333S94.869,277.333,106.667,277.333z M405.333,405.333			H106.667c-11.797,0-21.333-9.557-21.333-21.333s9.536-21.333,21.333-21.333h298.667c11.797,0,21.333,9.557,21.333,21.333			S417.131,405.333,405.333,405.333z M420.416,283.584c8.341,8.341,8.341,21.824,0,30.165c-4.16,4.16-9.621,6.251-15.083,6.251			c-5.461,0-10.923-2.091-15.083-6.251l-42.667-42.667c-8.341-8.341-8.341-21.824,0-30.165l42.667-42.667			c8.341-8.341,21.824-8.341,30.165,0s8.341,21.824,0,30.165L392.832,256L420.416,283.584z"/>		</g>	</g>	<g></g>	<g></g>	<g></g>	<g></g>	<g></g>	<g></g>	<g></g>	<g></g>	<g></g>	<g></g>	<g></g>	<g></g>	<g></g>	<g></g>	<g></g></svg>