<?xml version="1.0" encoding="UTF-8"?> <!-- Generator: Adobe Illustrator 25.2.0, SVG Export Plug-In . SVG Version: 6.00 Build 0) --> <svg xmlns="http://www.w3.org/2000/svg" xmlns:xlink="http://www.w3.org/1999/xlink" version="1.1" id="Layer_1" x="0px" y="0px" viewBox="0 0 612 792" style="enable-background:new 0 0 612 792;" xml:space="preserve"> <g> <path d="M242.72,484.63c-0.12-0.94-0.08-1.19-0.17-1.26c-9.38-6.74-7-15.81-5.97-25.31c1.76-16.33,2.41-32.8,2.94-49.23 c0.15-4.5,0.77-7.55,5.25-9.18c2.16-0.79,4.11-2.14,6.85-3.61c-3.94-3.03-7.65-5.64-11.05-8.6c-1.36-1.19-2.72-3.05-2.97-4.76 c-3.93-27.91-12.21-54.32-27.09-79.58c46.05,16.96,86.74,40.79,120.73,75.49c33.94,34.65,56.21,76.07,71.79,122.22 c-58.85,0-117,0-175.15,0C227.92,490.82,232.18,484.63,242.72,484.63z"></path> </g> </svg> 