<svg version="1.1" xmlns="http://www.w3.org/2000/svg" xmlns:xlink="http://www.w3.org/1999/xlink" x="0px" y="0px"	 viewBox="0 0 512.002 512.002" style="enable-background:new 0 0 512.002 512.002;" xml:space="preserve"><g>	<g>		<path d="M309.334,266.667c5.867,0,10.667-4.8,10.667-10.667c0-5.867-4.8-10.667-10.667-10.667h-42.667V66.774			c0-25.493,18.773-45.44,42.667-45.44c5.867,0,10.667-4.8,10.667-10.667c0-5.867-4.8-10.667-10.667-10.667			c-21.653-0.107-41.813,11.093-53.333,29.333c-11.52-18.24-31.68-29.44-53.333-29.333c-5.867,0-10.667,4.8-10.667,10.667			c0,5.867,4.8,10.667,10.667,10.667c23.893,0,42.667,19.947,42.667,45.44v178.56h-42.667c-5.867,0-10.667,4.8-10.667,10.667			c0,5.867,4.8,10.667,10.667,10.667h42.667v180.16c0,24.96-18.347,43.84-42.667,43.84c-5.867,0-10.667,4.8-10.667,10.667			c0,5.867,4.8,10.667,10.667,10.667c21.547,0.107,41.6-10.667,53.333-28.693c11.733,18.027,31.787,28.8,53.333,28.693			c5.867,0,10.667-4.8,10.667-10.667c0-5.867-4.8-10.667-10.667-10.667c-24.32,0-42.667-18.88-42.667-43.84v-180.16H309.334z"/>	</g></g><g></g><g></g><g></g><g></g><g></g><g></g><g></g><g></g><g></g><g></g><g></g><g></g><g></g><g></g><g></g></svg>